<?xml version="1.0" encoding="utf-8" standalone="no"?>
<!DOCTYPE svg PUBLIC "-//W3C//DTD SVG 1.1//EN"
  "http://www.w3.org/Graphics/SVG/1.1/DTD/svg11.dtd">
<!-- Created with matplotlib (https://matplotlib.org/) -->
<svg height="345.6pt" version="1.1" viewBox="0 0 460.8 345.6" width="460.8pt" xmlns="http://www.w3.org/2000/svg" xmlns:xlink="http://www.w3.org/1999/xlink">
 <defs>
  <style type="text/css">
*{stroke-linecap:butt;stroke-linejoin:round;}
  </style>
 </defs>
 <g id="figure_1">
  <g id="patch_1">
   <path d="M 0 345.6 
L 460.8 345.6 
L 460.8 0 
L 0 0 
z
" style="fill:#ffffff;"/>
  </g>
  <g id="axes_1">
   <g id="patch_2">
    <path d="M 57.6 307.584 
L 414.72 307.584 
L 414.72 41.472 
L 57.6 41.472 
z
" style="fill:#ffffff;"/>
   </g>
   <g id="line2d_1">
    <path clip-path="url(#pc4b841b26e)" d="M 252.392727 259.2 
L 252.392727 271.296 
M 268.625455 259.2 
L 252.392727 271.296 
M 268.625455 259.2 
L 252.392727 259.2 
M 252.392727 247.104 
L 252.392727 259.2 
M 252.392727 247.104 
L 268.625455 259.2 
M 268.625455 247.104 
L 268.625455 259.2 
M 268.625455 247.104 
L 252.392727 247.104 
M 284.858182 247.104 
L 268.625455 259.2 
M 284.858182 247.104 
L 268.625455 247.104 
M 252.392727 235.008 
L 252.392727 247.104 
M 268.625455 235.008 
L 252.392727 247.104 
M 268.625455 235.008 
L 268.625455 247.104 
M 268.625455 235.008 
L 252.392727 235.008 
M 284.858182 235.008 
L 268.625455 247.104 
M 284.858182 235.008 
L 284.858182 247.104 
M 284.858182 235.008 
L 268.625455 235.008 
M 301.090909 235.008 
L 284.858182 235.008 
M 252.392727 222.912 
L 252.392727 235.008 
M 268.625455 222.912 
L 252.392727 235.008 
M 268.625455 222.912 
L 268.625455 235.008 
M 268.625455 222.912 
L 284.858182 235.008 
M 268.625455 222.912 
L 252.392727 222.912 
M 284.858182 222.912 
L 284.858182 235.008 
M 284.858182 222.912 
L 268.625455 222.912 
M 301.090909 222.912 
L 284.858182 235.008 
M 301.090909 222.912 
L 301.090909 235.008 
M 301.090909 222.912 
L 284.858182 222.912 
M 317.323636 222.912 
L 301.090909 235.008 
M 317.323636 222.912 
L 301.090909 222.912 
M 252.392727 210.816 
L 252.392727 222.912 
M 252.392727 210.816 
L 268.625455 222.912 
M 268.625455 210.816 
L 268.625455 222.912 
M 268.625455 210.816 
L 284.858182 222.912 
M 268.625455 210.816 
L 252.392727 210.816 
M 284.858182 210.816 
L 284.858182 222.912 
M 284.858182 210.816 
L 268.625455 210.816 
M 301.090909 210.816 
L 284.858182 222.912 
M 301.090909 210.816 
L 301.090909 222.912 
M 301.090909 210.816 
L 284.858182 210.816 
M 317.323636 210.816 
L 301.090909 222.912 
M 317.323636 210.816 
L 317.323636 222.912 
M 317.323636 210.816 
L 301.090909 210.816 
M 333.556364 210.816 
L 317.323636 222.912 
M 333.556364 210.816 
L 317.323636 210.816 
M 252.392727 198.72 
L 252.392727 210.816 
M 268.625455 198.72 
L 252.392727 210.816 
M 268.625455 198.72 
L 268.625455 210.816 
M 268.625455 198.72 
L 252.392727 198.72 
M 284.858182 198.72 
L 268.625455 210.816 
M 284.858182 198.72 
L 284.858182 210.816 
M 284.858182 198.72 
L 268.625455 198.72 
M 301.090909 198.72 
L 284.858182 210.816 
M 301.090909 198.72 
L 301.090909 210.816 
M 301.090909 198.72 
L 317.323636 210.816 
M 301.090909 198.72 
L 284.858182 198.72 
M 317.323636 198.72 
L 317.323636 210.816 
M 317.323636 198.72 
L 301.090909 198.72 
M 333.556364 198.72 
L 317.323636 210.816 
M 333.556364 198.72 
L 333.556364 210.816 
M 333.556364 198.72 
L 317.323636 198.72 
M 349.789091 198.72 
L 333.556364 198.72 
M 252.392727 186.624 
L 252.392727 198.72 
M 268.625455 186.624 
L 252.392727 198.72 
M 268.625455 186.624 
L 268.625455 198.72 
M 268.625455 186.624 
L 252.392727 186.624 
M 284.858182 186.624 
L 268.625455 198.72 
M 284.858182 186.624 
L 284.858182 198.72 
M 284.858182 186.624 
L 268.625455 186.624 
M 301.090909 186.624 
L 284.858182 198.72 
M 301.090909 186.624 
L 301.090909 198.72 
M 301.090909 186.624 
L 317.323636 198.72 
M 301.090909 186.624 
L 284.858182 186.624 
M 317.323636 186.624 
L 317.323636 198.72 
M 317.323636 186.624 
L 301.090909 186.624 
M 333.556364 186.624 
L 317.323636 198.72 
M 333.556364 186.624 
L 333.556364 198.72 
M 333.556364 186.624 
L 349.789091 198.72 
M 333.556364 186.624 
L 317.323636 186.624 
M 349.789091 186.624 
L 349.789091 198.72 
M 349.789091 186.624 
L 333.556364 186.624 
M 366.021818 186.624 
L 349.789091 186.624 
M 252.392727 174.528 
L 252.392727 186.624 
M 252.392727 174.528 
L 268.625455 186.624 
M 268.625455 174.528 
L 268.625455 186.624 
M 268.625455 174.528 
L 284.858182 186.624 
M 268.625455 174.528 
L 252.392727 174.528 
M 284.858182 174.528 
L 284.858182 186.624 
M 284.858182 174.528 
L 301.090909 186.624 
M 284.858182 174.528 
L 268.625455 174.528 
M 301.090909 174.528 
L 301.090909 186.624 
M 301.090909 174.528 
L 284.858182 174.528 
M 317.323636 174.528 
L 301.090909 186.624 
M 317.323636 174.528 
L 317.323636 186.624 
M 317.323636 174.528 
L 333.556364 186.624 
M 317.323636 174.528 
L 301.090909 174.528 
M 333.556364 174.528 
L 333.556364 186.624 
M 333.556364 174.528 
L 317.323636 174.528 
M 349.789091 174.528 
L 333.556364 186.624 
M 349.789091 174.528 
L 349.789091 186.624 
M 349.789091 174.528 
L 333.556364 174.528 
M 366.021818 174.528 
L 349.789091 186.624 
M 366.021818 174.528 
L 366.021818 186.624 
M 366.021818 174.528 
L 349.789091 174.528 
M 382.254545 174.528 
L 366.021818 174.528 
M 106.298182 162.432 
L 90.065455 162.432 
M 122.530909 162.432 
L 106.298182 162.432 
M 138.763636 162.432 
L 122.530909 162.432 
M 154.996364 162.432 
L 138.763636 162.432 
M 171.229091 162.432 
L 154.996364 162.432 
M 187.461818 162.432 
L 171.229091 162.432 
M 203.694545 162.432 
L 187.461818 162.432 
M 219.927273 162.432 
L 203.694545 162.432 
M 236.16 162.432 
L 252.392727 174.528 
M 236.16 162.432 
L 219.927273 162.432 
M 252.392727 162.432 
L 252.392727 174.528 
M 252.392727 162.432 
L 268.625455 174.528 
M 252.392727 162.432 
L 236.16 162.432 
M 268.625455 162.432 
L 268.625455 174.528 
M 268.625455 162.432 
L 284.858182 174.528 
M 268.625455 162.432 
L 252.392727 162.432 
M 284.858182 162.432 
L 284.858182 174.528 
M 284.858182 162.432 
L 268.625455 162.432 
M 301.090909 162.432 
L 284.858182 174.528 
M 301.090909 162.432 
L 301.090909 174.528 
M 301.090909 162.432 
L 317.323636 174.528 
M 301.090909 162.432 
L 284.858182 162.432 
M 317.323636 162.432 
L 317.323636 174.528 
M 317.323636 162.432 
L 301.090909 162.432 
M 333.556364 162.432 
L 317.323636 174.528 
M 333.556364 162.432 
L 333.556364 174.528 
M 333.556364 162.432 
L 349.789091 174.528 
M 333.556364 162.432 
L 317.323636 162.432 
M 349.789091 162.432 
L 349.789091 174.528 
M 349.789091 162.432 
L 366.021818 174.528 
M 349.789091 162.432 
L 333.556364 162.432 
M 366.021818 162.432 
L 366.021818 174.528 
M 366.021818 162.432 
L 349.789091 162.432 
M 382.254545 162.432 
L 366.021818 174.528 
M 382.254545 162.432 
L 382.254545 174.528 
M 382.254545 162.432 
L 366.021818 162.432 
M 90.065455 150.336 
L 90.065455 162.432 
M 90.065455 150.336 
L 106.298182 162.432 
M 106.298182 150.336 
L 106.298182 162.432 
M 106.298182 150.336 
L 90.065455 150.336 
M 122.530909 150.336 
L 106.298182 162.432 
M 122.530909 150.336 
L 122.530909 162.432 
M 122.530909 150.336 
L 106.298182 150.336 
M 138.763636 150.336 
L 122.530909 162.432 
M 138.763636 150.336 
L 138.763636 162.432 
M 138.763636 150.336 
L 154.996364 162.432 
M 138.763636 150.336 
L 122.530909 150.336 
M 154.996364 150.336 
L 154.996364 162.432 
M 154.996364 150.336 
L 171.229091 162.432 
M 154.996364 150.336 
L 138.763636 150.336 
M 171.229091 150.336 
L 171.229091 162.432 
M 171.229091 150.336 
L 187.461818 162.432 
M 171.229091 150.336 
L 154.996364 150.336 
M 187.461818 150.336 
L 187.461818 162.432 
M 187.461818 150.336 
L 171.229091 150.336 
M 203.694545 150.336 
L 187.461818 162.432 
M 203.694545 150.336 
L 203.694545 162.432 
M 203.694545 150.336 
L 187.461818 150.336 
M 219.927273 150.336 
L 203.694545 162.432 
M 219.927273 150.336 
L 219.927273 162.432 
M 219.927273 150.336 
L 203.694545 150.336 
M 236.16 150.336 
L 219.927273 162.432 
M 236.16 150.336 
L 236.16 162.432 
M 236.16 150.336 
L 252.392727 162.432 
M 236.16 150.336 
L 219.927273 150.336 
M 252.392727 150.336 
L 252.392727 162.432 
M 252.392727 150.336 
L 236.16 150.336 
M 366.021818 150.336 
L 349.789091 162.432 
M 366.021818 150.336 
L 366.021818 162.432 
M 382.254545 150.336 
L 366.021818 162.432 
M 382.254545 150.336 
L 382.254545 162.432 
M 382.254545 150.336 
L 366.021818 150.336 
M 90.065455 138.24 
L 90.065455 150.336 
M 106.298182 138.24 
L 90.065455 150.336 
M 106.298182 138.24 
L 106.298182 150.336 
M 106.298182 138.24 
L 122.530909 150.336 
M 106.298182 138.24 
L 90.065455 138.24 
M 122.530909 138.24 
L 122.530909 150.336 
M 122.530909 138.24 
L 138.763636 150.336 
M 122.530909 138.24 
L 106.298182 138.24 
M 138.763636 138.24 
L 138.763636 150.336 
M 138.763636 138.24 
L 122.530909 138.24 
M 154.996364 138.24 
L 138.763636 150.336 
M 154.996364 138.24 
L 154.996364 150.336 
M 154.996364 138.24 
L 138.763636 138.24 
M 171.229091 138.24 
L 154.996364 150.336 
M 171.229091 138.24 
L 171.229091 150.336 
M 171.229091 138.24 
L 187.461818 150.336 
M 171.229091 138.24 
L 154.996364 138.24 
M 187.461818 138.24 
L 187.461818 150.336 
M 187.461818 138.24 
L 171.229091 138.24 
M 203.694545 138.24 
L 187.461818 150.336 
M 203.694545 138.24 
L 203.694545 150.336 
M 203.694545 138.24 
L 219.927273 150.336 
M 203.694545 138.24 
L 187.461818 138.24 
M 219.927273 138.24 
L 219.927273 150.336 
M 219.927273 138.24 
L 236.16 150.336 
M 219.927273 138.24 
L 203.694545 138.24 
M 236.16 138.24 
L 236.16 150.336 
M 236.16 138.24 
L 219.927273 138.24 
M 252.392727 138.24 
L 236.16 150.336 
M 252.392727 138.24 
L 252.392727 150.336 
M 252.392727 138.24 
L 236.16 138.24 
M 366.021818 138.24 
L 366.021818 150.336 
M 366.021818 138.24 
L 382.254545 150.336 
M 382.254545 138.24 
L 382.254545 150.336 
M 382.254545 138.24 
L 366.021818 138.24 
M 90.065455 126.144 
L 90.065455 138.24 
M 90.065455 126.144 
L 106.298182 138.24 
M 106.298182 126.144 
L 106.298182 138.24 
M 106.298182 126.144 
L 90.065455 126.144 
M 122.530909 126.144 
L 106.298182 138.24 
M 122.530909 126.144 
L 122.530909 138.24 
M 122.530909 126.144 
L 106.298182 126.144 
M 138.763636 126.144 
L 122.530909 138.24 
M 138.763636 126.144 
L 138.763636 138.24 
M 138.763636 126.144 
L 154.996364 138.24 
M 138.763636 126.144 
L 122.530909 126.144 
M 154.996364 126.144 
L 154.996364 138.24 
M 154.996364 126.144 
L 171.229091 138.24 
M 154.996364 126.144 
L 138.763636 126.144 
M 171.229091 126.144 
L 171.229091 138.24 
M 171.229091 126.144 
L 154.996364 126.144 
M 187.461818 126.144 
L 171.229091 138.24 
M 187.461818 126.144 
L 187.461818 138.24 
M 187.461818 126.144 
L 203.694545 138.24 
M 187.461818 126.144 
L 171.229091 126.144 
M 203.694545 126.144 
L 203.694545 138.24 
M 203.694545 126.144 
L 187.461818 126.144 
M 219.927273 126.144 
L 203.694545 138.24 
M 219.927273 126.144 
L 219.927273 138.24 
M 219.927273 126.144 
L 203.694545 126.144 
M 236.16 126.144 
L 219.927273 138.24 
M 236.16 126.144 
L 236.16 138.24 
M 236.16 126.144 
L 219.927273 126.144 
M 252.392727 126.144 
L 236.16 138.24 
M 252.392727 126.144 
L 252.392727 138.24 
M 252.392727 126.144 
L 236.16 126.144 
M 366.021818 126.144 
L 366.021818 138.24 
M 382.254545 126.144 
L 366.021818 138.24 
M 382.254545 126.144 
L 382.254545 138.24 
M 382.254545 126.144 
L 366.021818 126.144 
M 90.065455 114.048 
L 90.065455 126.144 
M 106.298182 114.048 
L 90.065455 126.144 
M 106.298182 114.048 
L 106.298182 126.144 
M 106.298182 114.048 
L 122.530909 126.144 
M 106.298182 114.048 
L 90.065455 114.048 
M 122.530909 114.048 
L 122.530909 126.144 
M 122.530909 114.048 
L 138.763636 126.144 
M 122.530909 114.048 
L 106.298182 114.048 
M 138.763636 114.048 
L 138.763636 126.144 
M 138.763636 114.048 
L 122.530909 114.048 
M 154.996364 114.048 
L 138.763636 126.144 
M 154.996364 114.048 
L 154.996364 126.144 
M 154.996364 114.048 
L 171.229091 126.144 
M 154.996364 114.048 
L 138.763636 114.048 
M 171.229091 114.048 
L 171.229091 126.144 
M 171.229091 114.048 
L 187.461818 126.144 
M 171.229091 114.048 
L 154.996364 114.048 
M 187.461818 114.048 
L 187.461818 126.144 
M 187.461818 114.048 
L 171.229091 114.048 
M 203.694545 114.048 
L 187.461818 126.144 
M 203.694545 114.048 
L 203.694545 126.144 
M 203.694545 114.048 
L 219.927273 126.144 
M 203.694545 114.048 
L 187.461818 114.048 
M 219.927273 114.048 
L 219.927273 126.144 
M 219.927273 114.048 
L 203.694545 114.048 
M 236.16 114.048 
L 219.927273 126.144 
M 236.16 114.048 
L 236.16 126.144 
M 236.16 114.048 
L 252.392727 126.144 
M 236.16 114.048 
L 219.927273 114.048 
M 252.392727 114.048 
L 252.392727 126.144 
M 252.392727 114.048 
L 236.16 114.048 
M 366.021818 114.048 
L 366.021818 126.144 
M 366.021818 114.048 
L 382.254545 126.144 
M 382.254545 114.048 
L 382.254545 126.144 
M 382.254545 114.048 
L 366.021818 114.048 
M 90.065455 101.952 
L 90.065455 114.048 
M 106.298182 101.952 
L 90.065455 114.048 
M 106.298182 101.952 
L 106.298182 114.048 
M 106.298182 101.952 
L 122.530909 114.048 
M 106.298182 101.952 
L 90.065455 101.952 
M 122.530909 101.952 
L 122.530909 114.048 
M 122.530909 101.952 
L 106.298182 101.952 
M 138.763636 101.952 
L 122.530909 114.048 
M 138.763636 101.952 
L 138.763636 114.048 
M 138.763636 101.952 
L 154.996364 114.048 
M 138.763636 101.952 
L 122.530909 101.952 
M 154.996364 101.952 
L 154.996364 114.048 
M 154.996364 101.952 
L 138.763636 101.952 
M 171.229091 101.952 
L 154.996364 114.048 
M 171.229091 101.952 
L 171.229091 114.048 
M 171.229091 101.952 
L 154.996364 101.952 
M 187.461818 101.952 
L 171.229091 114.048 
M 187.461818 101.952 
L 187.461818 114.048 
M 187.461818 101.952 
L 171.229091 101.952 
M 203.694545 101.952 
L 187.461818 114.048 
M 203.694545 101.952 
L 203.694545 114.048 
M 203.694545 101.952 
L 219.927273 114.048 
M 203.694545 101.952 
L 187.461818 101.952 
M 219.927273 101.952 
L 219.927273 114.048 
M 219.927273 101.952 
L 236.16 114.048 
M 219.927273 101.952 
L 203.694545 101.952 
M 236.16 101.952 
L 236.16 114.048 
M 236.16 101.952 
L 252.392727 114.048 
M 236.16 101.952 
L 219.927273 101.952 
M 252.392727 101.952 
L 252.392727 114.048 
M 252.392727 101.952 
L 236.16 101.952 
M 366.021818 101.952 
L 366.021818 114.048 
M 382.254545 101.952 
L 366.021818 114.048 
M 382.254545 101.952 
L 382.254545 114.048 
M 382.254545 101.952 
L 366.021818 101.952 
M 90.065455 89.856 
L 90.065455 101.952 
M 90.065455 89.856 
L 106.298182 101.952 
M 106.298182 89.856 
L 106.298182 101.952 
M 106.298182 89.856 
L 90.065455 89.856 
M 122.530909 89.856 
L 106.298182 101.952 
M 122.530909 89.856 
L 122.530909 101.952 
M 122.530909 89.856 
L 138.763636 101.952 
M 122.530909 89.856 
L 106.298182 89.856 
M 138.763636 89.856 
L 138.763636 101.952 
M 138.763636 89.856 
L 122.530909 89.856 
M 154.996364 89.856 
L 138.763636 101.952 
M 154.996364 89.856 
L 154.996364 101.952 
M 154.996364 89.856 
L 171.229091 101.952 
M 154.996364 89.856 
L 138.763636 89.856 
M 171.229091 89.856 
L 171.229091 101.952 
M 171.229091 89.856 
L 187.461818 101.952 
M 171.229091 89.856 
L 154.996364 89.856 
M 187.461818 89.856 
L 187.461818 101.952 
M 187.461818 89.856 
L 203.694545 101.952 
M 187.461818 89.856 
L 171.229091 89.856 
M 203.694545 89.856 
L 203.694545 101.952 
M 203.694545 89.856 
L 187.461818 89.856 
M 219.927273 89.856 
L 203.694545 101.952 
M 219.927273 89.856 
L 219.927273 101.952 
M 219.927273 89.856 
L 203.694545 89.856 
M 236.16 89.856 
L 219.927273 101.952 
M 236.16 89.856 
L 236.16 101.952 
M 236.16 89.856 
L 252.392727 101.952 
M 236.16 89.856 
L 219.927273 89.856 
M 252.392727 89.856 
L 252.392727 101.952 
M 252.392727 89.856 
L 236.16 89.856 
M 366.021818 89.856 
L 366.021818 101.952 
M 366.021818 89.856 
L 382.254545 101.952 
M 382.254545 89.856 
L 382.254545 101.952 
M 382.254545 89.856 
L 366.021818 89.856 
M 90.065455 77.76 
L 90.065455 89.856 
M 106.298182 77.76 
L 90.065455 89.856 
M 106.298182 77.76 
L 106.298182 89.856 
M 106.298182 77.76 
L 122.530909 89.856 
M 106.298182 77.76 
L 90.065455 77.76 
M 122.530909 77.76 
L 122.530909 89.856 
M 122.530909 77.76 
L 106.298182 77.76 
M 138.763636 77.76 
L 122.530909 89.856 
M 138.763636 77.76 
L 138.763636 89.856 
M 138.763636 77.76 
L 154.996364 89.856 
M 138.763636 77.76 
L 122.530909 77.76 
M 154.996364 77.76 
L 154.996364 89.856 
M 154.996364 77.76 
L 138.763636 77.76 
M 171.229091 77.76 
L 154.996364 89.856 
M 171.229091 77.76 
L 171.229091 89.856 
M 171.229091 77.76 
L 187.461818 89.856 
M 171.229091 77.76 
L 154.996364 77.76 
M 187.461818 77.76 
L 187.461818 89.856 
M 187.461818 77.76 
L 171.229091 77.76 
M 203.694545 77.76 
L 187.461818 89.856 
M 203.694545 77.76 
L 203.694545 89.856 
M 203.694545 77.76 
L 219.927273 89.856 
M 203.694545 77.76 
L 187.461818 77.76 
M 219.927273 77.76 
L 219.927273 89.856 
M 219.927273 77.76 
L 236.16 89.856 
M 219.927273 77.76 
L 203.694545 77.76 
M 236.16 77.76 
L 236.16 89.856 
M 236.16 77.76 
L 219.927273 77.76 
M 252.392727 77.76 
L 236.16 89.856 
M 252.392727 77.76 
L 252.392727 89.856 
M 252.392727 77.76 
L 236.16 77.76 
M 268.625455 77.76 
L 252.392727 77.76 
M 284.858182 77.76 
L 268.625455 77.76 
M 301.090909 77.76 
L 284.858182 77.76 
M 317.323636 77.76 
L 301.090909 77.76 
M 333.556364 77.76 
L 317.323636 77.76 
M 349.789091 77.76 
L 366.021818 89.856 
M 349.789091 77.76 
L 333.556364 77.76 
M 366.021818 77.76 
L 366.021818 89.856 
M 366.021818 77.76 
L 349.789091 77.76 
M 382.254545 77.76 
L 366.021818 89.856 
M 382.254545 77.76 
L 382.254545 89.856 
M 382.254545 77.76 
L 366.021818 77.76 
M 90.065455 65.664 
L 90.065455 77.76 
M 90.065455 65.664 
L 106.298182 77.76 
M 106.298182 65.664 
L 106.298182 77.76 
M 106.298182 65.664 
L 90.065455 65.664 
M 122.530909 65.664 
L 106.298182 77.76 
M 122.530909 65.664 
L 122.530909 77.76 
M 122.530909 65.664 
L 106.298182 65.664 
M 138.763636 65.664 
L 122.530909 77.76 
M 138.763636 65.664 
L 138.763636 77.76 
M 138.763636 65.664 
L 154.996364 77.76 
M 138.763636 65.664 
L 122.530909 65.664 
M 154.996364 65.664 
L 154.996364 77.76 
M 154.996364 65.664 
L 171.229091 77.76 
M 154.996364 65.664 
L 138.763636 65.664 
M 171.229091 65.664 
L 171.229091 77.76 
M 171.229091 65.664 
L 154.996364 65.664 
M 187.461818 65.664 
L 171.229091 77.76 
M 187.461818 65.664 
L 187.461818 77.76 
M 187.461818 65.664 
L 203.694545 77.76 
M 187.461818 65.664 
L 171.229091 65.664 
M 203.694545 65.664 
L 203.694545 77.76 
M 203.694545 65.664 
L 187.461818 65.664 
M 219.927273 65.664 
L 203.694545 77.76 
M 219.927273 65.664 
L 219.927273 77.76 
M 219.927273 65.664 
L 203.694545 65.664 
M 236.16 65.664 
L 219.927273 77.76 
M 236.16 65.664 
L 236.16 77.76 
M 236.16 65.664 
L 252.392727 77.76 
M 236.16 65.664 
L 219.927273 65.664 
M 252.392727 65.664 
L 252.392727 77.76 
M 252.392727 65.664 
L 236.16 65.664 
M 268.625455 65.664 
L 252.392727 77.76 
M 268.625455 65.664 
L 268.625455 77.76 
M 268.625455 65.664 
L 284.858182 77.76 
M 268.625455 65.664 
L 252.392727 65.664 
M 284.858182 65.664 
L 284.858182 77.76 
M 284.858182 65.664 
L 268.625455 65.664 
M 301.090909 65.664 
L 284.858182 77.76 
M 301.090909 65.664 
L 301.090909 77.76 
M 301.090909 65.664 
L 284.858182 65.664 
M 317.323636 65.664 
L 301.090909 77.76 
M 317.323636 65.664 
L 317.323636 77.76 
M 317.323636 65.664 
L 333.556364 77.76 
M 317.323636 65.664 
L 301.090909 65.664 
M 333.556364 65.664 
L 333.556364 77.76 
M 333.556364 65.664 
L 317.323636 65.664 
M 349.789091 65.664 
L 333.556364 77.76 
M 349.789091 65.664 
L 349.789091 77.76 
M 349.789091 65.664 
L 333.556364 65.664 
M 366.021818 65.664 
L 349.789091 77.76 
M 366.021818 65.664 
L 366.021818 77.76 
M 366.021818 65.664 
L 382.254545 77.76 
M 366.021818 65.664 
L 349.789091 65.664 
M 382.254545 65.664 
L 382.254545 77.76 
M 382.254545 65.664 
L 366.021818 65.664 
M 73.832727 174.528 
L 90.065455 162.432 
M 73.832727 162.432 
L 90.065455 162.432 
M 73.832727 162.432 
L 73.832727 174.528 
M 73.832727 150.336 
L 90.065455 162.432 
M 73.832727 150.336 
L 90.065455 150.336 
M 73.832727 150.336 
L 90.065455 138.24 
M 73.832727 150.336 
L 73.832727 162.432 
M 73.832727 138.24 
L 90.065455 138.24 
M 73.832727 138.24 
L 73.832727 150.336 
M 73.832727 126.144 
L 90.065455 138.24 
M 73.832727 126.144 
L 90.065455 126.144 
M 73.832727 126.144 
L 90.065455 114.048 
M 73.832727 126.144 
L 73.832727 138.24 
M 73.832727 114.048 
L 90.065455 114.048 
M 73.832727 114.048 
L 73.832727 126.144 
M 73.832727 101.952 
L 90.065455 114.048 
M 73.832727 101.952 
L 90.065455 101.952 
M 73.832727 101.952 
L 73.832727 114.048 
M 73.832727 89.856 
L 90.065455 101.952 
M 73.832727 89.856 
L 90.065455 89.856 
M 73.832727 89.856 
L 73.832727 101.952 
M 73.832727 77.76 
L 90.065455 89.856 
M 73.832727 77.76 
L 90.065455 77.76 
M 73.832727 77.76 
L 73.832727 89.856 
M 73.832727 65.664 
L 90.065455 77.76 
M 73.832727 65.664 
L 90.065455 65.664 
M 73.832727 65.664 
L 73.832727 77.76 
M 73.832727 53.568 
L 73.832727 65.664 
M 90.065455 174.528 
L 90.065455 162.432 
M 90.065455 174.528 
L 106.298182 162.432 
M 90.065455 174.528 
L 73.832727 174.528 
M 90.065455 53.568 
L 90.065455 65.664 
M 90.065455 53.568 
L 73.832727 65.664 
M 90.065455 53.568 
L 73.832727 53.568 
M 106.298182 174.528 
L 106.298182 162.432 
M 106.298182 174.528 
L 90.065455 174.528 
M 106.298182 53.568 
L 90.065455 65.664 
M 106.298182 53.568 
L 106.298182 65.664 
M 106.298182 53.568 
L 122.530909 65.664 
M 106.298182 53.568 
L 90.065455 53.568 
M 122.530909 174.528 
L 106.298182 162.432 
M 122.530909 174.528 
L 122.530909 162.432 
M 122.530909 174.528 
L 138.763636 162.432 
M 122.530909 174.528 
L 106.298182 174.528 
M 122.530909 53.568 
L 122.530909 65.664 
M 122.530909 53.568 
L 138.763636 65.664 
M 122.530909 53.568 
L 106.298182 53.568 
M 138.763636 174.528 
L 138.763636 162.432 
M 138.763636 174.528 
L 154.996364 162.432 
M 138.763636 174.528 
L 122.530909 174.528 
M 138.763636 53.568 
L 138.763636 65.664 
M 138.763636 53.568 
L 122.530909 53.568 
M 154.996364 174.528 
L 154.996364 162.432 
M 154.996364 174.528 
L 171.229091 162.432 
M 154.996364 174.528 
L 138.763636 174.528 
M 154.996364 53.568 
L 138.763636 65.664 
M 154.996364 53.568 
L 154.996364 65.664 
M 154.996364 53.568 
L 138.763636 53.568 
M 171.229091 174.528 
L 171.229091 162.432 
M 171.229091 174.528 
L 187.461818 162.432 
M 171.229091 174.528 
L 154.996364 174.528 
M 171.229091 53.568 
L 154.996364 65.664 
M 171.229091 53.568 
L 171.229091 65.664 
M 171.229091 53.568 
L 187.461818 65.664 
M 171.229091 53.568 
L 154.996364 53.568 
M 187.461818 174.528 
L 187.461818 162.432 
M 187.461818 174.528 
L 171.229091 174.528 
M 187.461818 53.568 
L 187.461818 65.664 
M 187.461818 53.568 
L 171.229091 53.568 
M 203.694545 174.528 
L 187.461818 162.432 
M 203.694545 174.528 
L 203.694545 162.432 
M 203.694545 174.528 
L 187.461818 174.528 
M 203.694545 53.568 
L 187.461818 65.664 
M 203.694545 53.568 
L 203.694545 65.664 
M 203.694545 53.568 
L 187.461818 53.568 
M 219.927273 174.528 
L 203.694545 162.432 
M 219.927273 174.528 
L 219.927273 162.432 
M 219.927273 174.528 
L 236.16 162.432 
M 219.927273 174.528 
L 203.694545 174.528 
M 219.927273 53.568 
L 203.694545 65.664 
M 219.927273 53.568 
L 219.927273 65.664 
M 219.927273 53.568 
L 236.16 65.664 
M 219.927273 53.568 
L 203.694545 53.568 
M 236.16 283.392 
L 252.392727 271.296 
M 236.16 283.392 
L 236.16 295.488 
M 236.16 271.296 
L 252.392727 271.296 
M 236.16 271.296 
L 252.392727 259.2 
M 236.16 271.296 
L 236.16 283.392 
M 236.16 259.2 
L 252.392727 259.2 
M 236.16 259.2 
L 252.392727 247.104 
M 236.16 259.2 
L 236.16 271.296 
M 236.16 247.104 
L 252.392727 247.104 
M 236.16 247.104 
L 236.16 259.2 
M 236.16 235.008 
L 252.392727 247.104 
M 236.16 235.008 
L 252.392727 235.008 
M 236.16 235.008 
L 236.16 247.104 
M 236.16 222.912 
L 252.392727 235.008 
M 236.16 222.912 
L 252.392727 222.912 
M 236.16 222.912 
L 252.392727 210.816 
M 236.16 222.912 
L 236.16 235.008 
M 236.16 210.816 
L 252.392727 210.816 
M 236.16 210.816 
L 236.16 222.912 
M 236.16 198.72 
L 252.392727 210.816 
M 236.16 198.72 
L 252.392727 198.72 
M 236.16 198.72 
L 236.16 210.816 
M 236.16 186.624 
L 252.392727 198.72 
M 236.16 186.624 
L 252.392727 186.624 
M 236.16 186.624 
L 236.16 198.72 
M 236.16 174.528 
L 252.392727 186.624 
M 236.16 174.528 
L 252.392727 174.528 
M 236.16 174.528 
L 236.16 162.432 
M 236.16 174.528 
L 219.927273 174.528 
M 236.16 174.528 
L 236.16 186.624 
M 236.16 53.568 
L 236.16 65.664 
M 236.16 53.568 
L 252.392727 65.664 
M 236.16 53.568 
L 219.927273 53.568 
M 252.392727 283.392 
L 252.392727 271.296 
M 252.392727 283.392 
L 236.16 295.488 
M 252.392727 283.392 
L 236.16 283.392 
M 252.392727 53.568 
L 252.392727 65.664 
M 252.392727 53.568 
L 268.625455 65.664 
M 252.392727 53.568 
L 236.16 53.568 
M 268.625455 271.296 
L 252.392727 271.296 
M 268.625455 271.296 
L 268.625455 259.2 
M 268.625455 271.296 
L 252.392727 283.392 
M 268.625455 150.336 
L 252.392727 162.432 
M 268.625455 150.336 
L 268.625455 162.432 
M 268.625455 150.336 
L 284.858182 162.432 
M 268.625455 150.336 
L 252.392727 150.336 
M 268.625455 150.336 
L 252.392727 138.24 
M 268.625455 138.24 
L 252.392727 138.24 
M 268.625455 138.24 
L 252.392727 126.144 
M 268.625455 138.24 
L 268.625455 150.336 
M 268.625455 126.144 
L 252.392727 126.144 
M 268.625455 126.144 
L 268.625455 138.24 
M 268.625455 114.048 
L 252.392727 126.144 
M 268.625455 114.048 
L 252.392727 114.048 
M 268.625455 114.048 
L 268.625455 126.144 
M 268.625455 101.952 
L 252.392727 114.048 
M 268.625455 101.952 
L 252.392727 101.952 
M 268.625455 101.952 
L 268.625455 114.048 
M 268.625455 89.856 
L 252.392727 101.952 
M 268.625455 89.856 
L 252.392727 89.856 
M 268.625455 89.856 
L 252.392727 77.76 
M 268.625455 89.856 
L 268.625455 77.76 
M 268.625455 89.856 
L 268.625455 101.952 
M 268.625455 53.568 
L 268.625455 65.664 
M 268.625455 53.568 
L 252.392727 53.568 
M 284.858182 259.2 
L 268.625455 259.2 
M 284.858182 259.2 
L 284.858182 247.104 
M 284.858182 259.2 
L 268.625455 271.296 
M 284.858182 150.336 
L 284.858182 162.432 
M 284.858182 150.336 
L 301.090909 162.432 
M 284.858182 150.336 
L 268.625455 150.336 
M 284.858182 89.856 
L 268.625455 77.76 
M 284.858182 89.856 
L 284.858182 77.76 
M 284.858182 89.856 
L 301.090909 77.76 
M 284.858182 89.856 
L 268.625455 89.856 
M 284.858182 53.568 
L 268.625455 65.664 
M 284.858182 53.568 
L 284.858182 65.664 
M 284.858182 53.568 
L 301.090909 65.664 
M 284.858182 53.568 
L 268.625455 53.568 
M 301.090909 247.104 
L 284.858182 247.104 
M 301.090909 247.104 
L 284.858182 235.008 
M 301.090909 247.104 
L 301.090909 235.008 
M 301.090909 247.104 
L 284.858182 259.2 
M 301.090909 150.336 
L 301.090909 162.432 
M 301.090909 150.336 
L 317.323636 162.432 
M 301.090909 150.336 
L 284.858182 150.336 
M 301.090909 89.856 
L 301.090909 77.76 
M 301.090909 89.856 
L 317.323636 77.76 
M 301.090909 89.856 
L 284.858182 89.856 
M 301.090909 53.568 
L 301.090909 65.664 
M 301.090909 53.568 
L 317.323636 65.664 
M 301.090909 53.568 
L 284.858182 53.568 
M 317.323636 235.008 
L 301.090909 235.008 
M 317.323636 235.008 
L 317.323636 222.912 
M 317.323636 235.008 
L 301.090909 247.104 
M 317.323636 150.336 
L 317.323636 162.432 
M 317.323636 150.336 
L 333.556364 162.432 
M 317.323636 150.336 
L 301.090909 150.336 
M 317.323636 89.856 
L 317.323636 77.76 
M 317.323636 89.856 
L 301.090909 89.856 
M 317.323636 53.568 
L 317.323636 65.664 
M 317.323636 53.568 
L 301.090909 53.568 
M 333.556364 222.912 
L 317.323636 222.912 
M 333.556364 222.912 
L 333.556364 210.816 
M 333.556364 222.912 
L 317.323636 235.008 
M 333.556364 150.336 
L 333.556364 162.432 
M 333.556364 150.336 
L 317.323636 150.336 
M 333.556364 89.856 
L 317.323636 77.76 
M 333.556364 89.856 
L 333.556364 77.76 
M 333.556364 89.856 
L 317.323636 89.856 
M 333.556364 53.568 
L 317.323636 65.664 
M 333.556364 53.568 
L 333.556364 65.664 
M 333.556364 53.568 
L 317.323636 53.568 
M 349.789091 210.816 
L 333.556364 210.816 
M 349.789091 210.816 
L 333.556364 198.72 
M 349.789091 210.816 
L 349.789091 198.72 
M 349.789091 210.816 
L 333.556364 222.912 
M 349.789091 150.336 
L 333.556364 162.432 
M 349.789091 150.336 
L 349.789091 162.432 
M 349.789091 150.336 
L 366.021818 150.336 
M 349.789091 150.336 
L 333.556364 150.336 
M 349.789091 138.24 
L 366.021818 150.336 
M 349.789091 138.24 
L 366.021818 138.24 
M 349.789091 138.24 
L 366.021818 126.144 
M 349.789091 138.24 
L 349.789091 150.336 
M 349.789091 126.144 
L 366.021818 126.144 
M 349.789091 126.144 
L 366.021818 114.048 
M 349.789091 126.144 
L 349.789091 138.24 
M 349.789091 114.048 
L 366.021818 114.048 
M 349.789091 114.048 
L 349.789091 126.144 
M 349.789091 101.952 
L 366.021818 114.048 
M 349.789091 101.952 
L 366.021818 101.952 
M 349.789091 101.952 
L 366.021818 89.856 
M 349.789091 101.952 
L 349.789091 114.048 
M 349.789091 89.856 
L 366.021818 89.856 
M 349.789091 89.856 
L 333.556364 77.76 
M 349.789091 89.856 
L 349.789091 77.76 
M 349.789091 89.856 
L 333.556364 89.856 
M 349.789091 89.856 
L 349.789091 101.952 
M 349.789091 53.568 
L 333.556364 65.664 
M 349.789091 53.568 
L 349.789091 65.664 
M 349.789091 53.568 
L 366.021818 65.664 
M 349.789091 53.568 
L 333.556364 53.568 
M 366.021818 198.72 
L 349.789091 198.72 
M 366.021818 198.72 
L 349.789091 186.624 
M 366.021818 198.72 
L 366.021818 186.624 
M 366.021818 198.72 
L 349.789091 210.816 
M 366.021818 53.568 
L 366.021818 65.664 
M 366.021818 53.568 
L 349.789091 53.568 
M 382.254545 186.624 
L 366.021818 186.624 
M 382.254545 186.624 
L 366.021818 174.528 
M 382.254545 186.624 
L 382.254545 174.528 
M 382.254545 186.624 
L 366.021818 198.72 
M 382.254545 53.568 
L 366.021818 65.664 
M 382.254545 53.568 
L 382.254545 65.664 
M 382.254545 53.568 
L 366.021818 53.568 
M 398.487273 174.528 
L 382.254545 174.528 
M 398.487273 174.528 
L 382.254545 162.432 
M 398.487273 174.528 
L 382.254545 186.624 
M 398.487273 162.432 
L 382.254545 162.432 
M 398.487273 162.432 
L 382.254545 150.336 
M 398.487273 162.432 
L 398.487273 174.528 
M 398.487273 150.336 
L 382.254545 150.336 
M 398.487273 150.336 
L 398.487273 162.432 
M 398.487273 138.24 
L 382.254545 150.336 
M 398.487273 138.24 
L 382.254545 138.24 
M 398.487273 138.24 
L 398.487273 150.336 
M 398.487273 126.144 
L 382.254545 138.24 
M 398.487273 126.144 
L 382.254545 126.144 
M 398.487273 126.144 
L 382.254545 114.048 
M 398.487273 126.144 
L 398.487273 138.24 
M 398.487273 114.048 
L 382.254545 114.048 
M 398.487273 114.048 
L 398.487273 126.144 
M 398.487273 101.952 
L 382.254545 114.048 
M 398.487273 101.952 
L 382.254545 101.952 
M 398.487273 101.952 
L 398.487273 114.048 
M 398.487273 89.856 
L 382.254545 101.952 
M 398.487273 89.856 
L 382.254545 89.856 
M 398.487273 89.856 
L 382.254545 77.76 
M 398.487273 89.856 
L 398.487273 101.952 
M 398.487273 77.76 
L 382.254545 77.76 
M 398.487273 77.76 
L 398.487273 89.856 
M 398.487273 65.664 
L 382.254545 77.76 
M 398.487273 65.664 
L 382.254545 65.664 
M 398.487273 65.664 
L 382.254545 53.568 
M 398.487273 65.664 
L 398.487273 77.76 
M 398.487273 53.568 
L 382.254545 53.568 
M 398.487273 53.568 
L 398.487273 65.664 
L 398.487273 65.664 
" style="fill:none;stroke:#1f77b4;stroke-linecap:square;stroke-width:1.5;"/>
   </g>
   <g id="matplotlib.axis_1">
    <g id="xtick_1">
     <g id="line2d_2">
      <defs>
       <path d="M 0 0 
L 0 3.5 
" id="m38f5dd0c90" style="stroke:#000000;stroke-width:0.8;"/>
      </defs>
      <g>
       <use style="stroke:#000000;stroke-width:0.8;" x="73.832727" xlink:href="#m38f5dd0c90" y="307.584"/>
      </g>
     </g>
     <g id="text_1">
      <!-- 0.0 -->
      <defs>
       <path d="M 31.78125 66.40625 
Q 24.171875 66.40625 20.328125 58.90625 
Q 16.5 51.421875 16.5 36.375 
Q 16.5 21.390625 20.328125 13.890625 
Q 24.171875 6.390625 31.78125 6.390625 
Q 39.453125 6.390625 43.28125 13.890625 
Q 47.125 21.390625 47.125 36.375 
Q 47.125 51.421875 43.28125 58.90625 
Q 39.453125 66.40625 31.78125 66.40625 
z
M 31.78125 74.21875 
Q 44.046875 74.21875 50.515625 64.515625 
Q 56.984375 54.828125 56.984375 36.375 
Q 56.984375 17.96875 50.515625 8.265625 
Q 44.046875 -1.421875 31.78125 -1.421875 
Q 19.53125 -1.421875 13.0625 8.265625 
Q 6.59375 17.96875 6.59375 36.375 
Q 6.59375 54.828125 13.0625 64.515625 
Q 19.53125 74.21875 31.78125 74.21875 
z
" id="DejaVuSans-48"/>
       <path d="M 10.6875 12.40625 
L 21 12.40625 
L 21 0 
L 10.6875 0 
z
" id="DejaVuSans-46"/>
      </defs>
      <g transform="translate(65.881165 322.182437)scale(0.1 -0.1)">
       <use xlink:href="#DejaVuSans-48"/>
       <use x="63.623047" xlink:href="#DejaVuSans-46"/>
       <use x="95.410156" xlink:href="#DejaVuSans-48"/>
      </g>
     </g>
    </g>
    <g id="xtick_2">
     <g id="line2d_3">
      <g>
       <use style="stroke:#000000;stroke-width:0.8;" x="114.414545" xlink:href="#m38f5dd0c90" y="307.584"/>
      </g>
     </g>
     <g id="text_2">
      <!-- 2.5 -->
      <defs>
       <path d="M 19.1875 8.296875 
L 53.609375 8.296875 
L 53.609375 0 
L 7.328125 0 
L 7.328125 8.296875 
Q 12.9375 14.109375 22.625 23.890625 
Q 32.328125 33.6875 34.8125 36.53125 
Q 39.546875 41.84375 41.421875 45.53125 
Q 43.3125 49.21875 43.3125 52.78125 
Q 43.3125 58.59375 39.234375 62.25 
Q 35.15625 65.921875 28.609375 65.921875 
Q 23.96875 65.921875 18.8125 64.3125 
Q 13.671875 62.703125 7.8125 59.421875 
L 7.8125 69.390625 
Q 13.765625 71.78125 18.9375 73 
Q 24.125 74.21875 28.421875 74.21875 
Q 39.75 74.21875 46.484375 68.546875 
Q 53.21875 62.890625 53.21875 53.421875 
Q 53.21875 48.921875 51.53125 44.890625 
Q 49.859375 40.875 45.40625 35.40625 
Q 44.1875 33.984375 37.640625 27.21875 
Q 31.109375 20.453125 19.1875 8.296875 
z
" id="DejaVuSans-50"/>
       <path d="M 10.796875 72.90625 
L 49.515625 72.90625 
L 49.515625 64.59375 
L 19.828125 64.59375 
L 19.828125 46.734375 
Q 21.96875 47.46875 24.109375 47.828125 
Q 26.265625 48.1875 28.421875 48.1875 
Q 40.625 48.1875 47.75 41.5 
Q 54.890625 34.8125 54.890625 23.390625 
Q 54.890625 11.625 47.5625 5.09375 
Q 40.234375 -1.421875 26.90625 -1.421875 
Q 22.3125 -1.421875 17.546875 -0.640625 
Q 12.796875 0.140625 7.71875 1.703125 
L 7.71875 11.625 
Q 12.109375 9.234375 16.796875 8.0625 
Q 21.484375 6.890625 26.703125 6.890625 
Q 35.15625 6.890625 40.078125 11.328125 
Q 45.015625 15.765625 45.015625 23.390625 
Q 45.015625 31 40.078125 35.4375 
Q 35.15625 39.890625 26.703125 39.890625 
Q 22.75 39.890625 18.8125 39.015625 
Q 14.890625 38.140625 10.796875 36.28125 
z
" id="DejaVuSans-53"/>
      </defs>
      <g transform="translate(106.462983 322.182437)scale(0.1 -0.1)">
       <use xlink:href="#DejaVuSans-50"/>
       <use x="63.623047" xlink:href="#DejaVuSans-46"/>
       <use x="95.410156" xlink:href="#DejaVuSans-53"/>
      </g>
     </g>
    </g>
    <g id="xtick_3">
     <g id="line2d_4">
      <g>
       <use style="stroke:#000000;stroke-width:0.8;" x="154.996364" xlink:href="#m38f5dd0c90" y="307.584"/>
      </g>
     </g>
     <g id="text_3">
      <!-- 5.0 -->
      <g transform="translate(147.044801 322.182437)scale(0.1 -0.1)">
       <use xlink:href="#DejaVuSans-53"/>
       <use x="63.623047" xlink:href="#DejaVuSans-46"/>
       <use x="95.410156" xlink:href="#DejaVuSans-48"/>
      </g>
     </g>
    </g>
    <g id="xtick_4">
     <g id="line2d_5">
      <g>
       <use style="stroke:#000000;stroke-width:0.8;" x="195.578182" xlink:href="#m38f5dd0c90" y="307.584"/>
      </g>
     </g>
     <g id="text_4">
      <!-- 7.5 -->
      <defs>
       <path d="M 8.203125 72.90625 
L 55.078125 72.90625 
L 55.078125 68.703125 
L 28.609375 0 
L 18.3125 0 
L 43.21875 64.59375 
L 8.203125 64.59375 
z
" id="DejaVuSans-55"/>
      </defs>
      <g transform="translate(187.626619 322.182437)scale(0.1 -0.1)">
       <use xlink:href="#DejaVuSans-55"/>
       <use x="63.623047" xlink:href="#DejaVuSans-46"/>
       <use x="95.410156" xlink:href="#DejaVuSans-53"/>
      </g>
     </g>
    </g>
    <g id="xtick_5">
     <g id="line2d_6">
      <g>
       <use style="stroke:#000000;stroke-width:0.8;" x="236.16" xlink:href="#m38f5dd0c90" y="307.584"/>
      </g>
     </g>
     <g id="text_5">
      <!-- 10.0 -->
      <defs>
       <path d="M 12.40625 8.296875 
L 28.515625 8.296875 
L 28.515625 63.921875 
L 10.984375 60.40625 
L 10.984375 69.390625 
L 28.421875 72.90625 
L 38.28125 72.90625 
L 38.28125 8.296875 
L 54.390625 8.296875 
L 54.390625 0 
L 12.40625 0 
z
" id="DejaVuSans-49"/>
      </defs>
      <g transform="translate(225.027188 322.182437)scale(0.1 -0.1)">
       <use xlink:href="#DejaVuSans-49"/>
       <use x="63.623047" xlink:href="#DejaVuSans-48"/>
       <use x="127.246094" xlink:href="#DejaVuSans-46"/>
       <use x="159.033203" xlink:href="#DejaVuSans-48"/>
      </g>
     </g>
    </g>
    <g id="xtick_6">
     <g id="line2d_7">
      <g>
       <use style="stroke:#000000;stroke-width:0.8;" x="276.741818" xlink:href="#m38f5dd0c90" y="307.584"/>
      </g>
     </g>
     <g id="text_6">
      <!-- 12.5 -->
      <g transform="translate(265.609006 322.182437)scale(0.1 -0.1)">
       <use xlink:href="#DejaVuSans-49"/>
       <use x="63.623047" xlink:href="#DejaVuSans-50"/>
       <use x="127.246094" xlink:href="#DejaVuSans-46"/>
       <use x="159.033203" xlink:href="#DejaVuSans-53"/>
      </g>
     </g>
    </g>
    <g id="xtick_7">
     <g id="line2d_8">
      <g>
       <use style="stroke:#000000;stroke-width:0.8;" x="317.323636" xlink:href="#m38f5dd0c90" y="307.584"/>
      </g>
     </g>
     <g id="text_7">
      <!-- 15.0 -->
      <g transform="translate(306.190824 322.182437)scale(0.1 -0.1)">
       <use xlink:href="#DejaVuSans-49"/>
       <use x="63.623047" xlink:href="#DejaVuSans-53"/>
       <use x="127.246094" xlink:href="#DejaVuSans-46"/>
       <use x="159.033203" xlink:href="#DejaVuSans-48"/>
      </g>
     </g>
    </g>
    <g id="xtick_8">
     <g id="line2d_9">
      <g>
       <use style="stroke:#000000;stroke-width:0.8;" x="357.905455" xlink:href="#m38f5dd0c90" y="307.584"/>
      </g>
     </g>
     <g id="text_8">
      <!-- 17.5 -->
      <g transform="translate(346.772642 322.182437)scale(0.1 -0.1)">
       <use xlink:href="#DejaVuSans-49"/>
       <use x="63.623047" xlink:href="#DejaVuSans-55"/>
       <use x="127.246094" xlink:href="#DejaVuSans-46"/>
       <use x="159.033203" xlink:href="#DejaVuSans-53"/>
      </g>
     </g>
    </g>
    <g id="xtick_9">
     <g id="line2d_10">
      <g>
       <use style="stroke:#000000;stroke-width:0.8;" x="398.487273" xlink:href="#m38f5dd0c90" y="307.584"/>
      </g>
     </g>
     <g id="text_9">
      <!-- 20.0 -->
      <g transform="translate(387.35446 322.182437)scale(0.1 -0.1)">
       <use xlink:href="#DejaVuSans-50"/>
       <use x="63.623047" xlink:href="#DejaVuSans-48"/>
       <use x="127.246094" xlink:href="#DejaVuSans-46"/>
       <use x="159.033203" xlink:href="#DejaVuSans-48"/>
      </g>
     </g>
    </g>
   </g>
   <g id="matplotlib.axis_2">
    <g id="ytick_1">
     <g id="line2d_11">
      <defs>
       <path d="M 0 0 
L -3.5 0 
" id="m0f1e85de7d" style="stroke:#000000;stroke-width:0.8;"/>
      </defs>
      <g>
       <use style="stroke:#000000;stroke-width:0.8;" x="57.6" xlink:href="#m0f1e85de7d" y="295.488"/>
      </g>
     </g>
     <g id="text_10">
      <!-- −10.0 -->
      <defs>
       <path d="M 10.59375 35.5 
L 73.1875 35.5 
L 73.1875 27.203125 
L 10.59375 27.203125 
z
" id="DejaVuSans-8722"/>
      </defs>
      <g transform="translate(19.954687 299.287219)scale(0.1 -0.1)">
       <use xlink:href="#DejaVuSans-8722"/>
       <use x="83.789062" xlink:href="#DejaVuSans-49"/>
       <use x="147.412109" xlink:href="#DejaVuSans-48"/>
       <use x="211.035156" xlink:href="#DejaVuSans-46"/>
       <use x="242.822266" xlink:href="#DejaVuSans-48"/>
      </g>
     </g>
    </g>
    <g id="ytick_2">
     <g id="line2d_12">
      <g>
       <use style="stroke:#000000;stroke-width:0.8;" x="57.6" xlink:href="#m0f1e85de7d" y="265.248"/>
      </g>
     </g>
     <g id="text_11">
      <!-- −7.5 -->
      <g transform="translate(26.317187 269.047219)scale(0.1 -0.1)">
       <use xlink:href="#DejaVuSans-8722"/>
       <use x="83.789062" xlink:href="#DejaVuSans-55"/>
       <use x="147.412109" xlink:href="#DejaVuSans-46"/>
       <use x="179.199219" xlink:href="#DejaVuSans-53"/>
      </g>
     </g>
    </g>
    <g id="ytick_3">
     <g id="line2d_13">
      <g>
       <use style="stroke:#000000;stroke-width:0.8;" x="57.6" xlink:href="#m0f1e85de7d" y="235.008"/>
      </g>
     </g>
     <g id="text_12">
      <!-- −5.0 -->
      <g transform="translate(26.317187 238.807219)scale(0.1 -0.1)">
       <use xlink:href="#DejaVuSans-8722"/>
       <use x="83.789062" xlink:href="#DejaVuSans-53"/>
       <use x="147.412109" xlink:href="#DejaVuSans-46"/>
       <use x="179.199219" xlink:href="#DejaVuSans-48"/>
      </g>
     </g>
    </g>
    <g id="ytick_4">
     <g id="line2d_14">
      <g>
       <use style="stroke:#000000;stroke-width:0.8;" x="57.6" xlink:href="#m0f1e85de7d" y="204.768"/>
      </g>
     </g>
     <g id="text_13">
      <!-- −2.5 -->
      <g transform="translate(26.317187 208.567219)scale(0.1 -0.1)">
       <use xlink:href="#DejaVuSans-8722"/>
       <use x="83.789062" xlink:href="#DejaVuSans-50"/>
       <use x="147.412109" xlink:href="#DejaVuSans-46"/>
       <use x="179.199219" xlink:href="#DejaVuSans-53"/>
      </g>
     </g>
    </g>
    <g id="ytick_5">
     <g id="line2d_15">
      <g>
       <use style="stroke:#000000;stroke-width:0.8;" x="57.6" xlink:href="#m0f1e85de7d" y="174.528"/>
      </g>
     </g>
     <g id="text_14">
      <!-- 0.0 -->
      <g transform="translate(34.696875 178.327219)scale(0.1 -0.1)">
       <use xlink:href="#DejaVuSans-48"/>
       <use x="63.623047" xlink:href="#DejaVuSans-46"/>
       <use x="95.410156" xlink:href="#DejaVuSans-48"/>
      </g>
     </g>
    </g>
    <g id="ytick_6">
     <g id="line2d_16">
      <g>
       <use style="stroke:#000000;stroke-width:0.8;" x="57.6" xlink:href="#m0f1e85de7d" y="144.288"/>
      </g>
     </g>
     <g id="text_15">
      <!-- 2.5 -->
      <g transform="translate(34.696875 148.087219)scale(0.1 -0.1)">
       <use xlink:href="#DejaVuSans-50"/>
       <use x="63.623047" xlink:href="#DejaVuSans-46"/>
       <use x="95.410156" xlink:href="#DejaVuSans-53"/>
      </g>
     </g>
    </g>
    <g id="ytick_7">
     <g id="line2d_17">
      <g>
       <use style="stroke:#000000;stroke-width:0.8;" x="57.6" xlink:href="#m0f1e85de7d" y="114.048"/>
      </g>
     </g>
     <g id="text_16">
      <!-- 5.0 -->
      <g transform="translate(34.696875 117.847219)scale(0.1 -0.1)">
       <use xlink:href="#DejaVuSans-53"/>
       <use x="63.623047" xlink:href="#DejaVuSans-46"/>
       <use x="95.410156" xlink:href="#DejaVuSans-48"/>
      </g>
     </g>
    </g>
    <g id="ytick_8">
     <g id="line2d_18">
      <g>
       <use style="stroke:#000000;stroke-width:0.8;" x="57.6" xlink:href="#m0f1e85de7d" y="83.808"/>
      </g>
     </g>
     <g id="text_17">
      <!-- 7.5 -->
      <g transform="translate(34.696875 87.607219)scale(0.1 -0.1)">
       <use xlink:href="#DejaVuSans-55"/>
       <use x="63.623047" xlink:href="#DejaVuSans-46"/>
       <use x="95.410156" xlink:href="#DejaVuSans-53"/>
      </g>
     </g>
    </g>
    <g id="ytick_9">
     <g id="line2d_19">
      <g>
       <use style="stroke:#000000;stroke-width:0.8;" x="57.6" xlink:href="#m0f1e85de7d" y="53.568"/>
      </g>
     </g>
     <g id="text_18">
      <!-- 10.0 -->
      <g transform="translate(28.334375 57.367219)scale(0.1 -0.1)">
       <use xlink:href="#DejaVuSans-49"/>
       <use x="63.623047" xlink:href="#DejaVuSans-48"/>
       <use x="127.246094" xlink:href="#DejaVuSans-46"/>
       <use x="159.033203" xlink:href="#DejaVuSans-48"/>
      </g>
     </g>
    </g>
   </g>
   <g id="line2d_20">
    <path clip-path="url(#pc4b841b26e)" d="M 73.832727 174.528 
L 73.832727 53.568 
L 398.487273 53.568 
L 398.487273 174.528 
L 236.16 295.488 
L 236.16 174.528 
L 73.832727 174.528 
" style="fill:none;stroke:#000000;stroke-linecap:square;stroke-width:2;"/>
   </g>
   <g id="line2d_21">
    <path clip-path="url(#pc4b841b26e)" d="M 268.625455 89.856 
L 349.789091 89.856 
L 349.789091 150.336 
L 268.625455 150.336 
L 268.625455 89.856 
" style="fill:none;stroke:#ff0000;stroke-linecap:square;stroke-width:2;"/>
   </g>
   <g id="line2d_22"/>
   <g id="patch_3">
    <path d="M 57.6 307.584 
L 57.6 41.472 
" style="fill:none;stroke:#000000;stroke-linecap:square;stroke-linejoin:miter;stroke-width:0.8;"/>
   </g>
   <g id="patch_4">
    <path d="M 414.72 307.584 
L 414.72 41.472 
" style="fill:none;stroke:#000000;stroke-linecap:square;stroke-linejoin:miter;stroke-width:0.8;"/>
   </g>
   <g id="patch_5">
    <path d="M 57.6 307.584 
L 414.72 307.584 
" style="fill:none;stroke:#000000;stroke-linecap:square;stroke-linejoin:miter;stroke-width:0.8;"/>
   </g>
   <g id="patch_6">
    <path d="M 57.6 41.472 
L 414.72 41.472 
" style="fill:none;stroke:#000000;stroke-linecap:square;stroke-linejoin:miter;stroke-width:0.8;"/>
   </g>
  </g>
 </g>
 <defs>
  <clipPath id="pc4b841b26e">
   <rect height="266.112" width="357.12" x="57.6" y="41.472"/>
  </clipPath>
 </defs>
</svg>
